# xmcd
#
# Track frame offsets: 
#        150
#        19379
#        32136
#        51795
#        59912
#        85094
#        109900
#        127292
#        148246
#        158556
#
# Disc length: 2489 seconds
#
# Revision: 1
# Processed by: cddbd v1.5.2PL0 Copyright (c) Steve Scherf et al.
# Submitted via: ExactAudioCopy v1.3
#
DISCID=9509b70a
DTITLE=Periphery - Juggernaut - Alpha
DYEAR=2015
DGENRE=Progressive Metal
TTITLE0=A Black Minute
TTITLE1=MK Ultra
TTITLE2=Heavy Heart
TTITLE3=The Event
TTITLE4=The Scourge
TTITLE5=Alpha
TTITLE6=22 Faces
TTITLE7=Rainbow Gravity
TTITLE8=Four Lights
TTITLE9=Psychosphere
EXTD=
EXTT0=
EXTT1=
EXTT2=
EXTT3=
EXTT4=
EXTT5=
EXTT6=
EXTT7=
EXTT8=
EXTT9=
PLAYORDER=
